<?xml version="1.0" encoding="UTF-8"?>
<!DOCTYPE svg PUBLIC "-//W3C//DTD SVG 1.1//EN" "http://www.w3.org/Graphics/SVG/1.1/DTD/svg11.dtd">
<svg xmlns="http://www.w3.org/2000/svg" xml:space="preserve" width="50mm" height="50mm" version="1.1" style="shape-rendering:geometricPrecision; text-rendering:geometricPrecision; image-rendering:optimizeQuality; fill-rule:evenodd; clip-rule:evenodd"
viewBox="0 0 5000 5000"
 xmlns:xlink="http://www.w3.org/1999/xlink">
 <defs>
  <style type="text/css">
   <![CDATA[
    .fil1 {fill:#FEFEFE}
    .fil2 {fill:#616c71}
    .fil3 {fill:#737677}
   ]]>
  </style>
  <linearGradient id="id0" gradientUnits="userSpaceOnUse" x1="2500" y1="5000" x2="2500" y2="0">
   <stop offset="0" style="stop-color:#373435"/>
   <stop offset="0.501961" style="stop-color:#616C71"/>
   <stop offset="1" style="stop-color:#373435"/>
  </linearGradient>
 </defs>
 <g id="Слой_x0020_1">
  <metadata id="CorelCorpID_0Corel-Layer"/>
  <g id="_670527616">
   <path class="fil1" d="M824 350l3351 0c261,0 474,213 474,474l0 3351c0,261 -213,474 -474,474l-3351 0c-261,0 -474,-213 -474,-474l0 -3351c0,-261 213,-474 474,-474z"/>
   <path class="fil2" d="M824 400l3351 0c233,0 424,191 424,424l0 3351c0,233 -191,424 -424,424l-3351 0c-233,0 -424,-191 -424,-424l0 -3351c0,-233 191,-424 424,-424z"/>
   <path class="fil3" d="M2500 400l1676 0c233,0 424,191 424,424l0 3351c0,233 -191,424 -424,424l-1676 0 0 -4200z"/>
   <g>
    <polygon class="fil1" points="2500,1114 3100,1461 3700,1807 3700,2500 3700,3193 3100,3539 2500,3886 1900,3539 1300,3193 1300,2500 1300,1807 1900,1461 "/>
    <path class="fil2" d="M1882 2876c9,22 37,58 51,77 18,25 39,48 59,69 130,137 328,229 538,228 187,0 343,-66 471,-167 6,-5 11,-9 17,-15 16,-15 34,-30 50,-46 20,-21 40,-43 59,-68 9,-12 18,-25 26,-37 9,-13 17,-28 25,-39 -4,-9 -32,-21 -40,-26 -13,-8 -27,-16 -40,-23l-243 -140c-12,25 -40,57 -55,74 -17,18 -45,41 -71,56 -125,76 -274,77 -397,-1 -58,-36 -89,-73 -125,-130 -169,-312 120,-645 442,-543 59,19 131,66 168,113 12,15 29,36 39,55l324 -187c-6,-23 -62,-91 -78,-112 -4,-5 -8,-8 -11,-13l-83 -80c-61,-51 -148,-102 -242,-133 -530,-171 -1047,266 -977,808 10,82 50,217 96,279zm1543 -425l0 7 -83 1 0 82 83 1 1 83 83 0 0 -83 83 0 0 -83 -83 -1 0 -83 -83 0 0 76zm-312 7l-83 0 0 83 82 0 1 83 83 0 0 -83 83 -1 0 -83 -83 0 0 -83 -82 0 -1 83z"/>
   </g>
  </g>
 </g>
</svg>
