<?xml version="1.0" encoding="UTF-8"?>
<!DOCTYPE svg PUBLIC "-//W3C//DTD SVG 1.1//EN" "http://www.w3.org/Graphics/SVG/1.1/DTD/svg11.dtd">
<svg xmlns="http://www.w3.org/2000/svg" xml:space="preserve" width="50mm" height="50mm" version="1.1" style="shape-rendering:geometricPrecision; text-rendering:geometricPrecision; image-rendering:optimizeQuality; fill-rule:evenodd; clip-rule:evenodd"
viewBox="0 0 5000 5000"
 xmlns:xlink="http://www.w3.org/1999/xlink">
 <defs>
  <style type="text/css">
   <![CDATA[
    .fil1 {fill:#FEFEFE}
    .fil2 {fill:#616c71}
    .fil3 {fill:#737677}
    .fil4 {fill:#FEFEFE;fill-rule:nonzero}
   ]]>
  </style>
  <linearGradient id="id0" gradientUnits="userSpaceOnUse" x1="2500" y1="5000" x2="2500" y2="0">
   <stop offset="0" style="stop-color:#373435"/>
   <stop offset="0.501961" style="stop-color:#616C71"/>
   <stop offset="1" style="stop-color:#373435"/>
  </linearGradient>
 </defs>
 <g id="Слой_x0020_1">
  <metadata id="CorelCorpID_0Corel-Layer"/>
  <g id="_771336816">
   <path class="fil1" d="M824 350l3351 0c261,0 474,213 474,474l0 3351c0,261 -213,474 -474,474l-3351 0c-261,0 -474,-213 -474,-474l0 -3351c0,-261 213,-474 474,-474z"/>
   <path class="fil2" d="M824 400l3351 0c233,0 424,191 424,424l0 3351c0,233 -191,424 -424,424l-3351 0c-233,0 -424,-191 -424,-424l0 -3351c0,-233 191,-424 424,-424z"/>
   <path class="fil3" d="M2500 400l1676 0c233,0 424,191 424,424l0 3351c0,233 -191,424 -424,424l-1676 0 0 -4200z"/>
   <path class="fil4" d="M2691 750c46,52 68,123 66,191 -2,81 -36,159 -81,225 -62,91 -143,168 -229,236 -51,40 -99,84 -138,136 -36,47 -62,104 -64,164 -2,59 20,116 48,166 47,83 113,154 152,241 -90,-82 -181,-165 -253,-264 -42,-59 -79,-128 -75,-203 2,-51 28,-97 59,-136 71,-89 165,-155 253,-225 48,-38 96,-77 139,-121 47,-49 89,-104 113,-168 30,-77 29,-163 9,-242zm365 1358c54,-20 114,-24 169,-6 48,15 91,47 114,92 20,38 22,84 9,125 -16,51 -53,93 -94,127 -84,67 -188,105 -291,133 5,-5 8,-12 14,-15 50,-26 99,-56 143,-91 42,-33 82,-71 108,-118 22,-38 33,-84 20,-127 -22,-74 -106,-120 -180,-103 -17,3 -34,8 -50,13 10,-13 23,-24 38,-30zm-961 8c23,-2 46,-3 68,-2 -55,13 -110,29 -164,48 -27,10 -54,20 -77,37 -8,6 -17,13 -16,24 2,11 14,16 24,20 32,12 66,16 100,19 91,9 183,8 274,6 171,-4 341,-16 511,-40 53,-7 106,-16 158,-24 -39,17 -77,37 -113,60 -113,30 -230,45 -346,55 -183,15 -368,17 -551,0 -57,-6 -114,-13 -169,-28 -19,-6 -39,-12 -55,-25 -8,-6 -14,-16 -9,-26 8,-16 24,-24 38,-32 102,-50 213,-83 327,-93zm-145 331c32,-25 71,-39 109,-52 -14,12 -29,26 -33,45 -2,12 5,24 15,30 20,12 43,16 66,19 92,10 185,16 278,15 132,-2 263,-20 393,-46 30,27 65,49 102,62 -160,46 -325,70 -491,74 -85,2 -169,-2 -253,-14 -56,-9 -113,-20 -164,-45 -18,-10 -38,-22 -44,-43 -4,-19 10,-36 24,-47zm73 260c28,-21 61,-31 94,-41 -11,8 -24,17 -26,31 -2,13 11,21 21,25 23,10 48,14 72,17 82,9 165,17 247,13 87,-3 173,-17 259,-33 4,0 9,-3 12,0 42,25 87,46 133,65 -141,60 -295,87 -448,86 -76,-1 -152,-8 -226,-25 -43,-11 -87,-24 -125,-48 -17,-11 -34,-26 -38,-46 -2,-18 11,-33 24,-44zm-294 160c39,-11 79,-19 120,-21 26,-1 54,0 77,14 -61,0 -121,16 -177,39 -20,9 -41,18 -57,34 -7,6 -11,18 -4,25 11,13 28,17 43,23 71,24 146,35 220,44 168,18 338,21 508,17 173,-4 347,-15 518,-42 32,-5 64,-11 96,-18 38,-9 76,-19 109,-38 14,-9 29,-21 32,-39 2,-14 -6,-27 -15,-38 18,9 40,20 46,42 4,22 -14,38 -30,50 -40,29 -87,45 -134,60 -143,43 -291,63 -439,77 -313,26 -628,12 -939,-33 -43,-7 -87,-12 -129,-27 -16,-6 -33,-14 -43,-29 -8,-11 -5,-27 3,-37 14,-20 34,-34 54,-46 43,-25 90,-43 138,-56zm1567 175c23,-13 45,-27 61,-49 -4,38 -29,69 -59,90 -53,39 -117,60 -180,77 -145,38 -295,52 -444,61 -167,9 -334,7 -501,-5 -77,-6 -155,-15 -230,-33 -29,-8 -59,-15 -85,-31 157,25 316,34 475,35 179,1 359,-9 537,-33 88,-13 175,-29 260,-52 57,-16 113,-34 165,-62zm-1698 233c41,0 82,0 123,0 0,187 0,374 0,561 -1,65 2,130 -5,194 -4,39 -15,77 -37,109 -35,51 -88,88 -146,109 -19,-23 -38,-45 -57,-67 37,-20 71,-48 94,-84 22,-34 24,-76 27,-115 2,-59 1,-118 1,-177 0,-177 0,-354 0,-531zm237 238c68,-30 143,-47 218,-47 53,0 110,10 150,46 35,30 49,78 49,123 0,136 0,272 0,409 -30,0 -61,0 -91,0 -3,-20 -6,-41 -9,-61 -41,36 -91,65 -146,71 -45,5 -94,1 -134,-23 -32,-19 -54,-52 -61,-88 -9,-44 -5,-93 17,-132 21,-38 59,-64 99,-79 67,-26 139,-27 210,-27 -1,-37 6,-77 -14,-111 -17,-28 -51,-39 -82,-41 -64,-4 -128,11 -188,32 -6,-24 -11,-48 -17,-72zm145 281c-26,9 -48,30 -55,57 -7,32 -5,70 19,95 22,23 56,28 86,23 40,-7 76,-29 106,-56 0,-45 0,-89 0,-134 -52,0 -106,-3 -156,15zm915 -281c63,-28 131,-44 200,-46 56,-1 117,5 162,41 38,29 54,78 55,125 0,137 0,275 0,412 -30,0 -61,0 -91,0 -3,-21 -6,-41 -9,-62 -41,36 -92,66 -147,71 -45,4 -94,0 -134,-23 -32,-19 -53,-52 -61,-88 -9,-44 -6,-92 17,-132 21,-38 59,-65 100,-80 67,-26 139,-27 209,-26 -1,-37 6,-76 -13,-110 -16,-28 -50,-39 -80,-42 -65,-5 -130,10 -190,32 -6,-24 -11,-48 -17,-72zm145 281c-26,9 -49,30 -55,58 -7,31 -4,66 17,91 20,24 54,30 83,26 42,-6 79,-29 111,-56 0,-45 0,-90 0,-134 -52,0 -106,-3 -156,15zm-719 -317c42,0 84,0 126,0 32,103 64,206 96,310 16,47 24,96 36,144 53,-147 92,-299 113,-453 41,0 82,0 123,0 -35,195 -91,387 -175,567 -48,0 -97,0 -145,0 -58,-189 -116,-378 -174,-567zm477 -2150c66,-29 134,-53 204,-72 -75,44 -149,89 -219,140 -44,32 -86,65 -123,104 -36,38 -69,85 -70,139 0,55 32,103 62,147 24,37 56,70 70,114 13,39 9,81 -8,118 -21,47 -58,86 -98,119 -27,22 -57,42 -87,59 40,-37 73,-85 77,-140 4,-44 -15,-87 -44,-120 -46,-53 -86,-112 -103,-180 -12,-45 -11,-93 4,-137 17,-54 52,-100 93,-138 71,-66 156,-114 245,-153z"/>
  </g>
 </g>
</svg>
