<?xml version="1.0" encoding="UTF-8"?>
<!DOCTYPE svg PUBLIC "-//W3C//DTD SVG 1.1//EN" "http://www.w3.org/Graphics/SVG/1.1/DTD/svg11.dtd">
<svg xmlns="http://www.w3.org/2000/svg" xml:space="preserve" width="50mm" height="50mm" version="1.1" style="shape-rendering:geometricPrecision; text-rendering:geometricPrecision; image-rendering:optimizeQuality; fill-rule:evenodd; clip-rule:evenodd"
viewBox="0 0 5000 5000"
 xmlns:xlink="http://www.w3.org/1999/xlink">
 <defs>
  <style type="text/css">
   <![CDATA[
    .fil1 {fill:#FEFEFE}
    .fil2 {fill:#616c71}
    .fil3 {fill:#737677}
    .fil4 {fill:#FEFEFE;fill-rule:nonzero}
   ]]>
  </style>
  <linearGradient id="id0" gradientUnits="userSpaceOnUse" x1="2500" y1="5000" x2="2500" y2="0">
   <stop offset="0" style="stop-color:#373435"/>
   <stop offset="0.501961" style="stop-color:#616C71"/>
   <stop offset="1" style="stop-color:#373435"/>
  </linearGradient>
 </defs>
 <g id="Слой_x0020_1">
  <metadata id="CorelCorpID_0Corel-Layer"/>
  <g id="_800419056">
   <path class="fil1" d="M824 350l3351 0c261,0 474,213 474,474l0 3351c0,261 -213,474 -474,474l-3351 0c-261,0 -474,-213 -474,-474l0 -3351c0,-261 213,-474 474,-474z"/>
   <path class="fil2" d="M824 400l3351 0c233,0 424,191 424,424l0 3351c0,233 -191,424 -424,424l-3351 0c-233,0 -424,-191 -424,-424l0 -3351c0,-233 191,-424 424,-424z"/>
   <path class="fil2" d="M824 400l3351 0c233,0 424,191 424,424l0 3351c0,233 -191,424 -424,424l-3351 0c-233,0 -424,-191 -424,-424l0 -3351c0,-233 191,-424 424,-424z"/>
   <path class="fil3" d="M2500 400l1676 0c233,0 424,191 424,424l0 3351c0,233 -191,424 -424,424l-1676 0 0 -4200z"/>
   <path class="fil4" d="M3021 781c0,-11 -1,-25 11,-31 11,-1 19,6 28,10 47,26 94,53 141,79 10,6 21,12 25,23 4,21 2,42 2,63 0,233 0,465 0,698 0,20 1,40 -2,59 -3,13 -16,19 -26,26 -83,48 -165,95 -248,143 -16,10 -37,22 -55,9 -85,-49 -170,-99 -256,-147 -16,-9 -37,-20 -36,-42 -1,-101 0,-201 -1,-302 0,-17 1,-37 17,-46 91,-53 182,-105 273,-158 25,-17 50,5 71,17 17,9 33,25 53,20 0,-140 0,-280 0,-421zm-206 670c-3,40 -3,81 2,121 33,19 65,41 100,56 35,-16 66,-38 100,-56 5,-41 -1,-81 1,-122 -34,-19 -67,-40 -102,-58 -34,19 -67,39 -101,58zm-1608 -279c15,-8 29,-19 46,-23 12,0 22,6 32,11 87,51 174,100 260,150 15,7 24,22 22,38 0,141 1,283 -1,424 2,11 -11,14 -18,19 -56,-33 -113,-64 -169,-97 -11,-6 -21,-18 -20,-31 -1,-66 0,-133 -1,-199 1,-28 -30,-37 -49,-49 -20,-10 -39,-29 -63,-24 -22,8 -41,23 -62,33 -13,8 -32,16 -31,34 -2,68 1,137 -1,205 0,17 -14,28 -28,35 -48,27 -96,55 -144,82 -9,6 -20,8 -31,9 -10,-34 -5,-71 -6,-106 2,-82 0,-164 1,-247 0,-34 -5,-68 0,-102 2,-15 15,-22 27,-29 78,-45 156,-90 234,-135zm871 -19c14,-5 28,3 40,10 88,51 176,102 264,153 15,7 18,24 17,39 0,103 0,206 0,309 2,18 -12,29 -26,37 -88,51 -176,102 -265,152 -13,9 -30,7 -42,-1 -88,-51 -177,-102 -265,-153 -14,-7 -25,-19 -23,-35 -1,-105 0,-210 0,-314 -2,-19 12,-32 27,-40 92,-52 181,-107 274,-156zm1644 9c12,-8 28,-14 41,-4 90,51 180,104 269,156 13,7 24,19 23,35 0,28 1,56 -1,83 -4,16 -19,23 -31,31 -48,27 -95,55 -143,83 -9,6 -20,6 -30,6 -9,-34 5,-71 -7,-105 -27,-19 -57,-33 -85,-51 -19,-13 -38,6 -55,14 -21,14 -46,22 -63,41 -3,34 -2,69 -1,103 -1,12 11,18 20,23 89,51 177,102 266,153 13,5 13,26 1,31 -54,31 -109,61 -164,91 -13,9 -28,6 -40,-2 -89,-50 -177,-101 -266,-152 -13,-7 -23,-20 -21,-35 0,-105 0,-211 0,-316 -2,-17 12,-28 26,-35 87,-50 174,-100 261,-150zm-36 308c20,-10 38,-24 59,-32 21,7 39,22 60,32 1,23 1,47 0,70 -20,11 -39,25 -60,33 -21,-9 -40,-22 -59,-33 -1,-23 -1,-47 0,-70zm-1284 473c59,-37 140,-36 199,1 281,163 562,324 842,487 58,31 93,97 92,162 0,324 0,648 0,972 2,66 -33,132 -91,165 -263,152 -527,304 -790,456 -40,21 -76,50 -122,59 -46,10 -93,-3 -132,-27 -92,-55 -184,-109 -275,-163 -11,-7 -21,-16 -29,-26 26,-18 57,-23 85,-37 25,-10 47,-27 72,-36 23,4 41,21 61,32 62,35 121,74 184,107 75,-39 147,-84 221,-125 200,-115 399,-230 599,-345 22,-17 66,-24 62,-60 0,-324 0,-648 0,-972 2,-15 -8,-26 -20,-33 -279,-161 -559,-322 -838,-483 -12,-8 -28,-12 -41,-2 -281,162 -562,324 -843,487 -16,7 -22,23 -20,39 0,322 0,644 0,966 -1,14 5,27 17,33 73,43 146,84 218,127 41,24 91,39 138,26 45,-12 78,-57 78,-103 0,-322 0,-644 0,-965 0,-10 1,-22 9,-29 15,-10 33,-6 50,-7 27,1 54,-2 81,2 19,3 20,26 20,41 0,317 0,635 0,952 1,79 -20,164 -82,217 -64,55 -154,62 -234,51 -67,-13 -128,-45 -186,-79 -58,-34 -116,-66 -173,-100 -53,-31 -88,-90 -89,-151 -1,-43 2,-87 -1,-130 3,-292 -1,-584 2,-876 3,-58 39,-113 90,-141 282,-163 563,-325 845,-489zm107 682c94,-38 197,-46 298,-42 110,4 227,23 316,92 76,58 113,155 118,248 -2,7 -5,14 -7,21 -47,14 -97,5 -146,6 -26,-1 -29,-29 -35,-49 -13,-53 -50,-102 -102,-123 -76,-30 -159,-27 -238,-26 -53,4 -110,11 -155,41 -43,28 -56,88 -37,133 18,29 54,39 85,48 161,41 331,39 490,93 57,20 115,51 148,104 38,60 41,134 32,202 -13,88 -72,165 -150,207 -109,59 -236,71 -358,69 -128,-5 -266,-23 -369,-106 -75,-60 -113,-158 -110,-253 1,-14 13,-26 27,-25 43,0 86,-1 130,0 20,0 24,23 27,38 8,48 28,97 69,124 56,38 127,44 192,50 88,1 179,6 263,-25 42,-15 79,-47 88,-92 4,-28 7,-59 -8,-84 -19,-28 -52,-39 -83,-49 -163,-49 -340,-31 -500,-92 -67,-25 -131,-72 -155,-142 -29,-84 -22,-182 27,-257 34,-53 88,-90 145,-114z"/>
  </g>
 </g>
</svg>
