<?xml version="1.0" encoding="UTF-8"?>
<!DOCTYPE svg PUBLIC "-//W3C//DTD SVG 1.1//EN" "http://www.w3.org/Graphics/SVG/1.1/DTD/svg11.dtd">
<svg xmlns="http://www.w3.org/2000/svg" xml:space="preserve" width="5.2in" height="1.44in" version="1.1" style="shape-rendering:geometricPrecision; text-rendering:geometricPrecision; image-rendering:optimizeQuality; fill-rule:evenodd; clip-rule:evenodd"
viewBox="0 0 2600 720"
 xmlns:xlink="http://www.w3.org/1999/xlink">
 <defs>
  <style type="text/css">
    .fil1 {fill:#972E2D}
    .fil2 {fill:#373435;fill-rule:nonzero}
    .fil3 {fill:#972E2D;fill-rule:nonzero}
  </style>
 </defs>
 <g id="l">
  <path class="fil1" d="M400 50l133 132c-108,22 -205,71 -286,177 27,-137 58,-205 152,-310zm143 195c-59,25 -86,238 -65,313l-102 102 -164 -164c89,-150 194,-215 331,-250zm59 7l91 91 -176 176c13,-93 39,-189 85,-268zm-431 202l-111 -111 266 -266c-83,110 -135,238 -155,377z"/>
  <path class="fil2" d="M974 561l49 -225c2,-8 3,-15 5,-22 2,-7 4,-13 7,-18 3,-6 6,-11 11,-16 4,-5 10,-10 17,-16l-97 0c3,4 6,8 8,11 2,3 3,6 4,9 1,3 1,7 1,11 0,3 0,6 -1,10 0,4 -1,8 -2,12 -1,4 -1,8 -2,11 -1,3 -1,6 -2,8l-32 142 -71 -172c-2,-4 -3,-8 -5,-13 -2,-5 -4,-10 -5,-15 -2,-5 -3,-10 -4,-14l-108 0c4,5 8,9 9,13 2,4 3,7 4,10 1,3 1,6 1,8 0,9 -1,16 -2,23 -1,7 -3,13 -4,18l-40 184c-1,6 -3,12 -4,18 -2,6 -4,12 -6,19 -3,6 -6,12 -11,18 -5,6 -11,12 -18,17l97 0c-4,-5 -6,-9 -8,-12 -2,-4 -3,-7 -4,-10 -1,-3 -1,-6 -1,-9 0,-3 0,-6 1,-10 0,-4 1,-8 2,-12 1,-4 1,-8 2,-11 1,-4 1,-6 2,-9l33 -149 55 130c7,16 13,30 19,42 6,11 12,21 18,28 6,7 12,13 19,17 7,4 14,7 22,8 8,2 18,2 29,2 4,0 8,0 11,0 3,0 6,-1 9,-1 3,-1 6,-1 10,-3l-16 -34z"/>
  <path class="fil2" d="M1236 257c-29,0 -55,4 -77,13 -23,9 -42,23 -59,42 -12,13 -22,28 -30,45 -8,17 -14,34 -18,53 -4,19 -6,37 -6,56 0,4 0,9 1,15 0,7 1,14 3,22 2,8 4,17 8,25 4,9 8,17 15,26 6,8 14,16 24,22 9,7 21,12 34,16 13,4 29,6 47,6 28,0 54,-5 77,-15 23,-10 43,-24 60,-43 17,-18 29,-41 38,-66 9,-26 13,-54 14,-86 0,-11 -1,-23 -2,-34 -2,-11 -5,-23 -9,-33 -5,-11 -11,-20 -19,-29 -8,-8 -17,-14 -26,-19 -9,-5 -18,-8 -27,-11 -9,-2 -18,-4 -26,-5 -8,-1 -15,-1 -21,-1zm-11 44c3,0 7,0 10,1 4,1 8,3 12,5 4,3 8,7 11,12 3,5 6,13 8,22 2,9 3,20 3,33 0,7 0,16 -1,25 -1,9 -2,19 -4,30 -2,10 -4,21 -6,32 -3,11 -6,21 -10,30 -6,15 -12,27 -19,36 -7,9 -14,16 -22,20 -8,4 -15,6 -22,6 -4,0 -8,-1 -13,-3 -5,-2 -10,-5 -15,-10 -5,-5 -9,-13 -12,-23 -3,-10 -5,-23 -5,-39 0,-10 1,-20 2,-31 1,-11 3,-22 5,-32 2,-11 5,-21 7,-31 3,-10 6,-19 9,-27 1,-4 4,-8 6,-13 3,-5 6,-10 9,-15 4,-5 8,-10 12,-14 5,-4 10,-8 15,-11 6,-3 12,-4 18,-4z"/>
  <path class="fil2" d="M1509 488l-17 -161c0,-3 -1,-6 -1,-11 0,-4 -1,-9 -1,-14 0,-5 0,-9 -1,-14 0,-4 0,-8 0,-11 0,-3 0,-6 0,-8 0,-2 0,-4 1,-7l-107 0c4,4 7,10 10,16 3,6 5,13 6,20 2,7 3,13 4,20l21 169c1,12 3,22 4,30 1,8 3,15 4,20 1,5 3,9 4,13 1,3 3,6 4,8 4,4 8,9 13,12 5,4 10,7 16,10 6,3 12,7 18,10l12 7 190 -335 -84 0c3,2 5,4 6,6 1,2 3,4 3,6 1,2 1,3 1,5 0,3 -1,7 -3,12 -2,5 -4,9 -6,14 -2,5 -4,8 -6,11l-92 171z"/>
  <path class="fil3" d="M1869 264l-122 0c5,3 8,7 10,10 2,4 4,7 5,10 1,3 1,6 1,9 0,5 -1,10 -2,14 -1,4 -3,8 -5,13 -2,4 -5,9 -8,13l-111 190c-5,9 -9,16 -13,23 -4,7 -7,13 -11,18 -4,5 -8,10 -12,15 -5,5 -10,9 -17,13l99 0c-5,-5 -8,-8 -10,-11 -2,-3 -2,-5 -2,-7 0,-3 1,-6 3,-11 2,-4 4,-9 6,-13 2,-5 5,-9 7,-13 2,-4 4,-7 5,-9l19 -33 109 0 8 55c0,3 1,6 1,8 0,2 0,4 0,6 0,3 -1,7 -2,10 -1,3 -3,7 -7,10 -3,3 -7,6 -13,9l131 0c-4,-5 -8,-9 -10,-12 -2,-4 -4,-8 -5,-11 -1,-4 -2,-8 -3,-12 -1,-4 -1,-9 -2,-15l-49 -278zm668 0l-215 0c4,4 7,9 10,14 2,5 4,11 4,17 0,5 0,9 -1,14 -1,5 -1,10 -2,14 -1,5 -2,9 -3,13l-40 184c-2,9 -4,18 -6,24 -2,7 -5,13 -7,19 -3,5 -6,10 -10,15 -4,5 -9,9 -15,14l225 0 39 -77c-9,8 -19,14 -28,18 -9,4 -18,7 -28,9 -9,1 -19,2 -30,2 -9,0 -18,0 -27,-2 -9,-1 -18,-4 -27,-8l20 -91 28 0c5,0 10,0 14,0 4,0 8,1 11,3 3,1 6,4 8,7 2,3 3,7 4,13l16 -75c-3,1 -7,2 -12,3 -5,1 -11,1 -19,1l-40 0 19 -83 52 0c5,0 9,0 14,1 5,0 9,2 13,3 4,2 8,4 11,8 3,4 5,9 6,15l16 -75zm-285 8c-11,-4 -22,-7 -32,-9 -10,-2 -20,-3 -30,-4 -10,-1 -19,-1 -29,-1 -28,0 -53,3 -75,10 -22,7 -40,16 -56,28 -13,9 -24,20 -34,32 -10,12 -18,25 -25,39 -7,14 -12,28 -15,43 -3,15 -5,30 -5,46 0,31 6,57 19,78 13,21 31,38 54,49 24,11 52,17 86,17 5,0 12,0 21,0 8,0 18,-1 28,-2 10,-1 21,-3 33,-5 11,-2 23,-5 34,-9 -1,-2 -1,-4 -1,-6 0,-2 0,-4 0,-6 0,-7 1,-14 2,-21 1,-7 2,-14 4,-21l10 -46c2,-9 4,-17 6,-24 2,-7 4,-13 6,-18 2,-5 5,-11 9,-16l-122 0c6,5 10,10 13,14 3,5 4,10 4,15 0,3 0,6 -1,10 -1,4 -1,9 -2,13 -1,5 -2,9 -3,13 -1,4 -2,8 -2,11l-12 52c-1,0 -2,0 -4,0 -1,0 -3,0 -5,0 -2,0 -3,0 -5,0 -7,0 -13,-1 -20,-3 -7,-2 -14,-6 -20,-10 -6,-5 -12,-11 -18,-19 -5,-8 -9,-18 -12,-29 -3,-12 -5,-25 -5,-41 0,-20 3,-39 8,-57 5,-17 13,-33 22,-46 10,-13 22,-23 36,-31 14,-7 30,-11 49,-11 17,0 33,3 47,10 14,7 25,16 34,29l10 -73zm-515 177l61 -108 15 108 -76 0z"/>
 </g>
</svg>
