<?xml version="1.0" encoding="UTF-8"?>
<!DOCTYPE svg PUBLIC "-//W3C//DTD SVG 1.1//EN" "http://www.w3.org/Graphics/SVG/1.1/DTD/svg11.dtd">
<svg xmlns="http://www.w3.org/2000/svg" xml:space="preserve" width="50mm" height="50mm" version="1.1" style="shape-rendering:geometricPrecision; text-rendering:geometricPrecision; image-rendering:optimizeQuality; fill-rule:evenodd; clip-rule:evenodd"
viewBox="0 0 5000 5000"
 xmlns:xlink="http://www.w3.org/1999/xlink">
 <defs>
  <style type="text/css">
   <![CDATA[
    .fil1 {fill:#FEFEFE}
    .fil2 {fill:#616c71}
    .fil3 {fill:#737677}
    .fil4 {fill:#FEFEFE;fill-rule:nonzero}
    .fil5 {fill:#616c71;fill-rule:nonzero}
    .fil6 {fill:#737677;fill-rule:nonzero}
   ]]>
  </style>
  <linearGradient id="id0" gradientUnits="userSpaceOnUse" x1="2500" y1="5000" x2="2500" y2="0">
   <stop offset="0" style="stop-color:#373435"/>
   <stop offset="0.501961" style="stop-color:#616C71"/>
   <stop offset="1" style="stop-color:#373435"/>
  </linearGradient>
 </defs>
 <g id="Слой_x0020_1">
  <metadata id="CorelCorpID_0Corel-Layer"/>
  <g id="_800355424">
   <path class="fil1" d="M824 350l3351 0c261,0 474,213 474,474l0 3351c0,261 -213,474 -474,474l-3351 0c-261,0 -474,-213 -474,-474l0 -3351c0,-261 213,-474 474,-474z"/>
   <path class="fil2" d="M824 400l3351 0c233,0 424,191 424,424l0 3351c0,233 -191,424 -424,424l-3351 0c-233,0 -424,-191 -424,-424l0 -3351c0,-233 191,-424 424,-424z"/>
   <path class="fil3" d="M2500 400l1676 0c233,0 424,191 424,424l0 3351c0,233 -191,424 -424,424l-1676 0 0 -4200z"/>
   <path class="fil4" d="M1186 3739c13,-23 46,-28 67,-14 11,10 14,25 18,38 23,95 42,191 65,285 25,-91 49,-183 74,-275 6,-22 18,-46 42,-53 21,-5 47,-5 63,12 15,13 19,34 25,53 24,88 48,176 72,265 23,-97 44,-194 66,-291 3,-15 11,-29 25,-37 21,-9 49,-3 60,18 11,19 3,41 -1,61 -28,112 -55,224 -83,335 -5,19 -10,39 -25,53 -16,13 -38,14 -57,9 -20,-6 -32,-25 -37,-44 -30,-102 -54,-205 -85,-307 -30,100 -54,202 -84,302 -5,19 -15,40 -35,48 -21,8 -48,6 -64,-11 -12,-13 -17,-31 -21,-48 -28,-113 -56,-226 -84,-339 -4,-19 -10,-40 0,-58zm1007 -9c11,-14 31,-15 47,-10 17,6 25,26 25,43 0,45 0,90 0,135 25,-25 56,-47 92,-50 46,-6 96,8 126,44 36,43 43,102 38,156 -5,47 -23,95 -61,124 -37,29 -88,34 -132,19 -25,-9 -45,-28 -62,-49 -1,15 0,31 -10,43 -16,19 -50,19 -64,-2 -9,-12 -8,-28 -9,-42 0,-119 0,-239 0,-358 0,-18 0,-39 12,-54zm134 187c-37,13 -55,53 -58,90 -2,34 0,72 24,98 24,28 70,35 100,12 26,-19 37,-53 38,-84 2,-35 -4,-74 -29,-100 -19,-21 -51,-26 -77,-17zm1262 -197c47,-6 97,-1 139,21 38,19 71,51 85,92 5,17 7,38 -5,52 -15,21 -53,20 -66,-3 -13,-20 -23,-42 -39,-58 -44,-46 -126,-40 -165,9 -31,36 -38,86 -38,132 0,42 8,86 35,119 38,46 114,51 161,15 25,-19 34,-50 47,-77 11,-25 48,-27 65,-7 16,15 12,39 7,59 -18,64 -77,111 -142,122 -42,7 -86,5 -127,-7 -44,-13 -81,-44 -104,-83 -38,-60 -45,-134 -34,-203 9,-58 40,-113 89,-147 28,-19 60,-31 93,-36zm-978 17c14,-12 34,-12 52,-12 57,0 113,0 170,0 36,1 75,9 102,34 43,38 52,107 26,157 -20,37 -61,55 -100,64 30,20 54,47 73,76 20,30 38,61 48,95 7,26 -20,49 -45,47 -20,1 -38,-13 -48,-29 -25,-39 -48,-80 -73,-119 -15,-21 -31,-44 -57,-53 -22,-7 -46,-5 -70,-4 1,46 0,92 1,138 0,19 0,41 -15,55 -18,16 -48,17 -66,1 -14,-13 -16,-34 -16,-52 0,-118 0,-235 0,-353 0,-17 3,-35 16,-47zm80 60c0,42 0,85 0,127 34,0 68,1 101,-1 24,-2 52,-4 71,-22 15,-14 17,-36 14,-55 -5,-25 -28,-44 -53,-46 -44,-5 -89,-2 -133,-3zm302 -56c10,-13 27,-16 42,-16 102,0 204,0 306,0 21,-1 42,16 41,37 3,21 -15,39 -35,40 -39,3 -77,0 -116,1 0,114 0,228 0,342 1,24 -14,50 -40,52 -28,6 -56,-18 -55,-47 0,-116 -1,-231 0,-347 -41,-3 -82,2 -122,-3 -27,-4 -38,-40 -22,-61zm-1111 120c38,-16 80,-19 120,-11 45,10 87,40 106,83 11,26 18,56 9,84 -7,22 -33,25 -52,27 -62,2 -124,-1 -185,1 3,21 6,43 19,61 19,30 58,41 91,32 30,-8 52,-31 74,-51 9,-10 25,-9 37,-6 18,7 19,30 11,45 -19,41 -63,62 -106,70 -42,6 -87,4 -126,-14 -42,-19 -72,-59 -83,-103 -12,-50 -9,-104 14,-150 15,-30 40,-55 71,-68zm23 69c-16,18 -22,41 -25,64 52,0 104,0 156,0 -3,-23 -7,-47 -24,-64 -27,-31 -80,-31 -107,0z"/>
   <path class="fil4" d="M2257 851c181,-82 402,-65 567,45 155,100 258,275 268,459 109,-24 224,-18 329,19 161,56 295,184 357,343 47,118 54,251 21,373 -44,166 -164,310 -320,382 103,178 103,410 -1,588 -45,79 -108,148 -184,198 -111,76 -249,111 -383,99 -103,-8 -203,-44 -287,-103 -44,-30 -82,-67 -118,-106 -54,65 -123,117 -198,153 -117,56 -253,72 -380,45 -176,-36 -332,-159 -410,-321 -87,-175 -78,-391 20,-559 -106,-46 -197,-123 -260,-219 -64,-96 -98,-212 -97,-328 -1,-149 59,-298 161,-406 89,-95 211,-159 340,-179 75,-11 152,-9 226,8 9,-97 41,-192 94,-273 62,-95 152,-172 255,-218zm836 504c-94,23 -183,66 -256,130l-6 5c67,0 135,0 202,0 17,0 33,2 50,5l2 0c8,-46 10,-93 7,-140zm-910 135c-31,-30 -66,-55 -103,-78 -53,-33 -112,-55 -173,-70 -4,49 -2,99 6,148 4,0 8,0 12,0 1,0 1,0 2,0l256 0zm-525 831c-31,28 -59,60 -85,93 -13,17 -24,35 -34,54 38,17 78,29 119,37l0 -184zm1820 151c-53,-94 -133,-173 -228,-226 0,93 0,186 0,279l0 3c79,-3 157,-21 228,-57zm-1097 420c20,94 63,183 126,256 90,-107 140,-246 139,-385 -83,39 -164,80 -247,120l-18 9z"/>
   <path class="fil5" d="M1828 1561c32,-10 66,-5 99,-6 104,0 208,0 312,0 177,0 354,0 531,0 88,0 175,0 263,0 12,0 25,1 37,4 44,11 83,42 101,84 13,27 14,57 13,86 0,162 0,324 0,486 0,104 0,208 0,312 3,45 -11,91 -44,123 -28,28 -68,44 -108,44 -131,0 -262,0 -393,0 -91,43 -180,88 -270,131 -176,86 -352,173 -528,259 39,-130 81,-260 120,-390 -42,-2 -84,4 -125,-4 -51,-11 -94,-51 -109,-101 -8,-24 -6,-50 -6,-75 0,-80 0,-160 0,-241 0,-192 0,-384 0,-576 1,-62 46,-119 105,-136z"/>
   <path class="fil6" d="M2500 1555c90,0 181,0 271,0 88,0 175,0 263,0 12,0 25,1 37,4 44,11 83,42 101,84 13,27 14,57 13,86 0,162 0,324 0,486 0,104 0,208 0,312 3,45 -11,91 -44,123 -28,28 -68,44 -108,44 -131,0 -262,0 -393,0 -47,22 -94,45 -141,68l0 -1206z"/>
  </g>
 </g>
</svg>
