<?xml version="1.0" encoding="UTF-8"?>
<!DOCTYPE svg PUBLIC "-//W3C//DTD SVG 1.1//EN" "http://www.w3.org/Graphics/SVG/1.1/DTD/svg11.dtd">
<svg xmlns="http://www.w3.org/2000/svg" xml:space="preserve" width="50mm" height="50mm" version="1.1" style="shape-rendering:geometricPrecision; text-rendering:geometricPrecision; image-rendering:optimizeQuality; fill-rule:evenodd; clip-rule:evenodd"
viewBox="0 0 5000 5000"
 xmlns:xlink="http://www.w3.org/1999/xlink">
 <defs>
  <style type="text/css">
   <![CDATA[
    .fil1 {fill:#FEFEFE}
    .fil2 {fill:#616c71}
    .fil3 {fill:#737677}
    .fil4 {fill:#FEFEFE;fill-rule:nonzero}
   ]]>
  </style>
  <linearGradient id="id0" gradientUnits="userSpaceOnUse" x1="2500" y1="5000" x2="2500" y2="0">
   <stop offset="0" style="stop-color:#373435"/>
   <stop offset="0.501961" style="stop-color:#616C71"/>
   <stop offset="1" style="stop-color:#373435"/>
  </linearGradient>
 </defs>
 <g id="Слой_x0020_1">
  <metadata id="CorelCorpID_0Corel-Layer"/>
  <g id="_653207264">
   <path class="fil1" d="M824 350l3351 0c261,0 474,213 474,474l0 3351c0,261 -213,474 -474,474l-3351 0c-261,0 -474,-213 -474,-474l0 -3351c0,-261 213,-474 474,-474z"/>
   <path class="fil2" d="M824 400l3351 0c233,0 424,191 424,424l0 3351c0,233 -191,424 -424,424l-3351 0c-233,0 -424,-191 -424,-424l0 -3351c0,-233 191,-424 424,-424z"/>
   <path class="fil3" d="M2500 400l1676 0c233,0 424,191 424,424l0 3351c0,233 -191,424 -424,424l-1676 0 0 -4200z"/>
   <g>
    <path class="fil4" d="M3699 3997l0 -452 193 0c86,0 129,36 129,109 0,59 -42,102 -126,131l155 213 -77 0 -144 -203 0 -38c86,-14 130,-47 130,-100 0,-42 -24,-63 -72,-63l-129 0 0 404 -59 0 0 0zm-2688 0l-61 0 225 -512 225 512 -65 0 -59 -142 -150 0 16 -47 114 0 -84 -205 -162 395 0 0zm2241 0l-61 0 225 -512 225 512 -65 0 -59 -142 -150 0 16 -47 114 0 -84 -205 -162 395 0 0zm-348 -452l0 405 237 0 0 47 -295 0 0 -452 59 0 0 0zm-519 278l0 -278 58 0 0 278c0,87 43,130 130,130 86,0 130,-43 130,-130l0 -278 59 0 0 278c0,119 -63,178 -188,178 -126,0 -188,-59 -188,-178zm-90 157c-36,14 -76,21 -118,21 -164,0 -246,-79 -246,-236 0,-149 79,-223 237,-223 45,0 88,6 127,19l0 51c-39,-15 -79,-22 -120,-22 -123,0 -185,59 -185,176 0,125 61,188 182,188 19,0 41,-3 65,-8l0 -154 58 0 0 188zm-840 18l0 -452 59 0 277 364 0 -364 55 0 0 452 -59 0 -277 -368 0 368 -55 0 0 0z"/>
    <path class="fil1" d="M1300 1221l1195 -421 2 0 1203 413 -189 1567 -1014 562 -1008 -554 -189 -1567zm1195 334l-220 522c157,0 313,0 470,0l-250 -523zm-2 -528l0 0 0 0 0 0 774 1650 -264 -5 -162 -376c-221,0 -442,0 -663,0l-148 371 -276 5 740 -1645 0 0 0 0zm1087 277l0 0zm-2146 7l0 0zm1059 -377l1087 371 -176 1402 -911 504 -897 -498 -162 -1402 1059 -377z"/>
   </g>
  </g>
 </g>
</svg>
