<?xml version="1.0" encoding="UTF-8"?>
<!DOCTYPE svg PUBLIC "-//W3C//DTD SVG 1.1//EN" "http://www.w3.org/Graphics/SVG/1.1/DTD/svg11.dtd">
<svg xmlns="http://www.w3.org/2000/svg" xml:space="preserve" width="50mm" height="50mm" version="1.1" style="shape-rendering:geometricPrecision; text-rendering:geometricPrecision; image-rendering:optimizeQuality; fill-rule:evenodd; clip-rule:evenodd"
viewBox="0 0 5000 5000"
 xmlns:xlink="http://www.w3.org/1999/xlink">
 <defs>
  <style type="text/css">
   <![CDATA[
    .fil1 {fill:#FEFEFE}
    .fil2 {fill:#616c71}
    .fil3 {fill:#737677}
    .fil4 {fill:#FEFEFE;fill-rule:nonzero}
   ]]>
  </style>
  <linearGradient id="id0" gradientUnits="userSpaceOnUse" x1="2500" y1="5000" x2="2500" y2="0">
   <stop offset="0" style="stop-color:#373435"/>
   <stop offset="0.501961" style="stop-color:#616C71"/>
   <stop offset="1" style="stop-color:#373435"/>
  </linearGradient>
 </defs>
 <g id="Слой_x0020_1">
  <metadata id="CorelCorpID_0Corel-Layer"/>
  <g id="_641921072">
   <path class="fil1" d="M824 350l3351 0c261,0 474,213 474,474l0 3351c0,261 -213,474 -474,474l-3351 0c-261,0 -474,-213 -474,-474l0 -3351c0,-261 213,-474 474,-474z"/>
   <path class="fil2" d="M824 400l3351 0c233,0 424,191 424,424l0 3351c0,233 -191,424 -424,424l-3351 0c-233,0 -424,-191 -424,-424l0 -3351c0,-233 191,-424 424,-424z"/>
   <path class="fil3" d="M2500 400l1676 0c233,0 424,191 424,424l0 3351c0,233 -191,424 -424,424l-1676 0 0 -4200z"/>
   <path class="fil4" d="M2284 821c88,-16 178,-23 267,-20 -43,89 -83,180 -126,269 -225,1 -450,0 -674,0 154,-124 337,-215 533,-249zm205 250c42,-88 82,-176 124,-265 63,6 124,19 186,31 -2,9 -4,19 -8,28 -32,68 -64,136 -95,205 -69,2 -138,0 -207,1zm270 -1c35,-70 66,-143 100,-213 143,44 274,121 391,214 -164,0 -327,0 -491,0zm-1084 69c7,-9 18,-11 29,-11 157,0 315,0 472,0 -6,15 -13,31 -18,46 49,5 114,6 140,57 17,50 -5,102 -23,149 -16,-4 -32,-7 -48,-8 -3,18 -7,37 -11,55 12,2 23,5 35,7 -69,143 -132,288 -202,430 -239,0 -478,0 -717,0 24,-272 150,-533 343,-725zm268 218c2,18 4,37 6,55 47,-3 95,-4 142,-2 1,-19 2,-39 2,-58 -50,0 -101,-6 -150,5zm-275 64c7,18 14,36 21,54 44,-17 89,-31 134,-42 -4,-19 -9,-39 -13,-58 -48,13 -97,26 -143,46zm-246 143c12,15 24,30 37,45 37,-29 77,-55 117,-79 -10,-17 -20,-34 -30,-51 -43,26 -85,54 -124,85zm1279 -361c16,-28 51,-30 80,-30 114,1 229,-3 343,4 53,6 109,10 155,38 30,18 44,53 50,86 11,50 4,102 -4,152 30,-3 60,-6 90,-8 16,-44 28,-90 46,-134 2,0 4,0 6,0 112,164 182,355 201,552 -203,0 -405,0 -607,0 30,-71 65,-140 97,-210 -28,-1 -57,-1 -85,0 -42,56 -83,120 -151,148 -61,25 -128,26 -193,28 -108,1 -215,0 -323,1 42,-92 84,-184 128,-275 17,13 35,25 53,36 11,-15 22,-30 34,-45 -19,-16 -44,-26 -59,-45 15,-51 43,-96 64,-145 25,-51 45,-104 74,-153zm-19 473c33,34 64,69 92,107 16,-12 32,-24 48,-35 -31,-39 -63,-78 -100,-113 -13,14 -27,27 -40,41zm-1356 245c232,0 465,0 697,0 -101,212 -198,425 -298,637 -30,68 -108,97 -178,99 -18,-15 -27,-37 -40,-56 -129,-201 -190,-442 -181,-680zm767 585c89,-196 179,-391 272,-585 122,2 243,-1 365,2 48,6 116,1 140,54 13,43 0,89 -6,132 28,0 56,0 84,0 28,-63 57,-125 87,-187 213,0 425,0 638,0 15,281 -78,565 -253,786 -181,0 -362,1 -542,0 95,-118 181,-243 271,-365 -27,-2 -54,-5 -80,-10 -85,88 -176,174 -280,238 -129,73 -282,78 -427,78 -94,-2 -192,6 -281,-30 -22,-35 0,-76 13,-111zm841 -321c9,46 13,92 16,139 19,0 39,-1 58,-1 -2,-50 -8,-99 -16,-148 -20,3 -39,6 -59,10zm-1239 581c70,1 141,0 211,1 -25,58 -55,114 -79,172 -54,-39 -107,-81 -153,-129 7,-15 15,-29 22,-44zm275 1c290,0 581,-2 871,1 -10,15 -19,30 -28,45 17,10 33,20 49,31 15,-25 29,-50 42,-76 154,-2 309,-1 464,0 -120,131 -269,235 -433,301 -122,50 -253,74 -384,85 -11,-15 -20,-30 -29,-46 -41,7 -73,47 -117,41 -187,-16 -372,-75 -530,-179 33,-67 64,-135 95,-203zm672 252c13,14 27,28 40,42 36,-34 72,-69 102,-109 -15,-12 -30,-24 -44,-35 -30,37 -63,70 -97,102z"/>
   <path class="fil4" d="M3231 3585c69,-41 158,-24 222,17 -11,17 -22,33 -32,50 -40,-24 -91,-45 -137,-25 -33,13 -46,66 -13,86 44,25 98,25 140,55 40,25 60,77 49,123 -9,47 -48,85 -93,99 -68,22 -144,9 -206,-26 6,-19 16,-38 27,-55 47,28 106,47 159,25 40,-16 51,-78 14,-103 -46,-30 -108,-26 -150,-63 -55,-48 -42,-147 21,-183zm435 2c68,-43 159,-28 224,15 -10,17 -21,34 -32,50 -40,-25 -92,-45 -137,-24 -32,14 -43,67 -10,86 39,23 88,24 127,47 37,19 65,59 62,102 3,55 -37,104 -87,123 -71,27 -151,13 -216,-23 11,-16 13,-43 30,-52 28,14 56,28 87,31 28,2 60,3 83,-16 31,-23 32,-76 -2,-97 -48,-29 -112,-25 -153,-66 -48,-50 -34,-139 24,-176zm-2566 -20c78,0 156,0 234,0 -3,20 -6,39 -9,58 -52,0 -103,0 -154,0 0,39 0,77 0,116 43,0 86,0 129,0 0,19 0,39 -1,59 -43,-1 -85,0 -128,0 1,44 0,88 0,132 56,0 112,0 169,0 0,20 0,40 0,60 -80,0 -160,0 -240,0 0,-141 0,-283 0,-424zm357 0c28,0 57,0 85,0 23,44 46,88 68,132 24,-43 44,-89 69,-132 27,1 54,0 82,0 -35,65 -73,128 -108,194 44,77 88,153 129,231 -27,0 -55,0 -82,0 -31,-55 -59,-112 -88,-168 -28,56 -57,111 -84,167 -29,1 -57,0 -86,0 41,-77 86,-151 129,-228 -39,-65 -76,-131 -114,-197zm462 424c0,-141 -1,-283 0,-424 62,1 124,-4 185,7 44,11 82,48 89,94 3,29 3,61 -11,88 -16,36 -50,62 -88,70 -35,8 -71,4 -107,5 0,54 1,107 0,161 -23,0 -46,0 -68,0zm69 -367c-1,50 0,99 0,149 39,-3 87,11 116,-23 22,-31 21,-81 -7,-109 -31,-25 -73,-15 -109,-17zm363 -57c57,2 116,-5 172,6 39,8 74,37 86,75 14,47 3,105 -37,136 -17,14 -39,19 -60,23 26,21 43,50 61,78 22,35 44,70 65,106 -27,0 -55,0 -82,0 -34,-57 -62,-119 -107,-168 -7,-9 -19,-13 -29,-15 0,61 0,122 0,183 -22,0 -45,0 -67,0 -2,-141 -1,-283 -1,-425zm67 58c0,45 0,89 0,134 35,-1 75,6 104,-17 24,-26 28,-75 0,-100 -30,-22 -70,-16 -105,-17zm374 367c-1,-142 -1,-283 0,-425 78,1 156,0 234,0 -3,19 -6,38 -9,58 -52,1 -104,0 -156,1 0,38 0,77 0,115 44,0 87,0 131,0 0,19 0,39 0,58 -43,1 -87,0 -130,1 0,44 0,88 0,131 57,1 114,0 170,1 0,20 0,40 0,60 -80,0 -160,0 -240,0z"/>
  </g>
 </g>
</svg>
