<?xml version="1.0" encoding="UTF-8"?>
<!DOCTYPE svg PUBLIC "-//W3C//DTD SVG 1.1//EN" "http://www.w3.org/Graphics/SVG/1.1/DTD/svg11.dtd">
<svg xmlns="http://www.w3.org/2000/svg" xml:space="preserve" width="50mm" height="50mm" version="1.1" style="shape-rendering:geometricPrecision; text-rendering:geometricPrecision; image-rendering:optimizeQuality; fill-rule:evenodd; clip-rule:evenodd"
viewBox="0 0 5000 5000"
 xmlns:xlink="http://www.w3.org/1999/xlink">
 <defs>
  <style type="text/css">
   <![CDATA[
    .fil1 {fill:#FEFEFE}
    .fil2 {fill:#616c71}
    .fil3 {fill:#737677}
   ]]>
  </style>
  <linearGradient id="id0" gradientUnits="userSpaceOnUse" x1="2500" y1="5000" x2="2500" y2="0">
   <stop offset="0" style="stop-color:#373435"/>
   <stop offset="0.501961" style="stop-color:#616C71"/>
   <stop offset="1" style="stop-color:#373435"/>
  </linearGradient>
 </defs>
 <g id="Слой_x0020_1">
  <metadata id="CorelCorpID_0Corel-Layer"/>
  <g id="_774619376">
   <path class="fil1" d="M824 350l3351 0c261,0 474,213 474,474l0 3351c0,261 -213,474 -474,474l-3351 0c-261,0 -474,-213 -474,-474l0 -3351c0,-261 213,-474 474,-474z"/>
   <path class="fil2" d="M824 400l3351 0c233,0 424,191 424,424l0 3351c0,233 -191,424 -424,424l-3351 0c-233,0 -424,-191 -424,-424l0 -3351c0,-233 191,-424 424,-424z"/>
   <path class="fil3" d="M2500 400l1676 0c233,0 424,191 424,424l0 3351c0,233 -191,424 -424,424l-1676 0 0 -4200z"/>
   <path class="fil1" d="M2931 2027c-65,0 -118,53 -118,118l0 782 60 0c67,0 120,-54 120,-120l0 -240 202 0c54,0 97,-44 97,-98l0 -442 -362 0zm-1086 0c-65,0 -118,53 -118,118l0 782 60 0c67,0 120,-54 120,-120l0 -240 202 0c54,0 97,-44 97,-98l0 -442 -362 0zm182 360l-120 0 0 -170c0,-6 5,-10 10,-10l110 0 0 180zm365 -360c-68,0 -123,55 -123,123l0 178 180 0 0 -109c0,-6 5,-11 11,-11l109 0 0 180 -180 0c-66,0 -120,54 -120,120l0 420 360 0c66,0 120,-54 120,-120l0 -61 -300 0 0 -169c0,-6 5,-11 11,-11l289 0 0 -540 -357 0zm720 360l-120 0 0 -170c0,-6 5,-10 10,-10l110 0 0 180z"/>
   <path class="fil1" d="M1595 2431l-448 -609 -448 609 238 0c63,0 115,51 115,114 7,619 421,1162 1014,1336 182,53 371,69 559,47 261,-30 505,-134 710,-298 41,-32 51,-91 20,-133 -32,-44 -94,-52 -136,-18 -199,159 -441,253 -695,266 -184,10 -365,-23 -534,-94 -445,-188 -740,-619 -748,-1104 -1,-32 11,-60 33,-83 23,-23 50,-34 82,-34l237 0zm1809 136l448 609 448 -609 -238 0c-63,0 -115,-51 -115,-114 -7,-619 -420,-1163 -1014,-1336 -182,-53 -371,-69 -560,-47 -260,29 -505,133 -709,297 -41,33 -51,90 -20,133 32,44 94,51 136,18 199,-159 441,-253 696,-266 183,-9 365,23 534,94 445,187 741,619 748,1104 0,32 -11,60 -33,83 -23,23 -50,34 -82,34l-237 0z"/>
  </g>
 </g>
</svg>
