<?xml version="1.0" encoding="UTF-8"?>
<!DOCTYPE svg PUBLIC "-//W3C//DTD SVG 1.1//EN" "http://www.w3.org/Graphics/SVG/1.1/DTD/svg11.dtd">
<svg xmlns="http://www.w3.org/2000/svg" xml:space="preserve" width="50mm" height="50mm" version="1.1" style="shape-rendering:geometricPrecision; text-rendering:geometricPrecision; image-rendering:optimizeQuality; fill-rule:evenodd; clip-rule:evenodd"
viewBox="0 0 5000 5000"
 xmlns:xlink="http://www.w3.org/1999/xlink">
 <defs>
  <style type="text/css">
   <![CDATA[
    .fil1 {fill:#FEFEFE}
    .fil2 {fill:#616c71}
    .fil3 {fill:#737677}
    .fil4 {fill:#FEFEFE;fill-rule:nonzero}
   ]]>
  </style>
  <linearGradient id="id0" gradientUnits="userSpaceOnUse" x1="2500" y1="5000" x2="2500" y2="0">
   <stop offset="0" style="stop-color:#373435"/>
   <stop offset="0.501961" style="stop-color:#616C71"/>
   <stop offset="1" style="stop-color:#373435"/>
  </linearGradient>
 </defs>
 <g id="Слой_x0020_1">
  <metadata id="CorelCorpID_0Corel-Layer"/>
  <g id="_670525344">
   <path class="fil1" d="M824 350l3351 0c261,0 474,213 474,474l0 3351c0,261 -213,474 -474,474l-3351 0c-261,0 -474,-213 -474,-474l0 -3351c0,-261 213,-474 474,-474z"/>
   <path class="fil2" d="M824 400l3351 0c233,0 424,191 424,424l0 3351c0,233 -191,424 -424,424l-3351 0c-233,0 -424,-191 -424,-424l0 -3351c0,-233 191,-424 424,-424z"/>
   <path class="fil3" d="M2500 400l1676 0c233,0 424,191 424,424l0 3351c0,233 -191,424 -424,424l-1676 0 0 -4200z"/>
   <path class="fil4" d="M2295 1531c270,-16 543,-1 809,49 200,38 397,97 582,183 142,67 278,151 390,262 100,97 181,219 210,356 25,116 12,240 -36,348 -57,131 -156,240 -268,327 -131,102 -280,178 -434,238 -189,73 -386,120 -586,148 -225,32 -453,39 -680,25 -211,-13 -422,-47 -626,-104 -174,-50 -344,-117 -500,-210 -80,-48 -156,-104 -224,-168 -89,-84 -164,-186 -203,-303 -42,-122 -40,-259 5,-380 46,-124 131,-230 230,-317 129,-113 280,-196 438,-262 283,-116 588,-174 893,-193zm145 144c-173,3 -346,20 -517,52 -182,35 -361,87 -530,163 -139,64 -272,144 -380,254 -81,83 -147,187 -162,304 -14,101 15,204 69,289 58,94 141,170 230,234 75,54 157,98 241,137 159,73 328,123 499,158 244,49 494,66 742,56 208,-9 416,-37 618,-90 180,-47 357,-113 517,-210 120,-73 232,-164 308,-284 51,-80 80,-176 72,-272 -7,-90 -46,-176 -100,-248 -86,-115 -205,-202 -329,-271 -154,-85 -321,-145 -492,-188 -257,-64 -523,-90 -787,-86zm-128 150c66,0 131,0 197,0 -21,100 -42,200 -62,300 68,0 136,0 205,0 56,2 114,6 165,31 31,15 56,41 68,74 16,44 12,93 4,139 -26,119 -52,237 -77,356 -67,0 -133,0 -200,0 24,-111 48,-221 72,-332 5,-29 10,-61 -6,-87 -17,-24 -50,-27 -77,-29 -61,-2 -123,0 -184,-1 -32,150 -63,300 -95,450 -66,0 -131,0 -197,0 63,-300 125,-600 188,-900zm-1015 1125c51,-275 101,-550 152,-825 136,0 272,0 408,0 75,1 153,24 205,81 50,53 65,130 55,201 -11,67 -33,135 -74,190 -41,55 -105,90 -171,107 -110,28 -225,21 -337,22 -13,75 -27,150 -39,224 -66,1 -132,0 -198,0zm322 -675c-19,100 -38,200 -57,300 48,0 96,0 143,0 52,-1 108,-5 151,-37 41,-31 58,-82 64,-131 5,-32 2,-70 -22,-94 -28,-28 -70,-35 -108,-37 -57,-1 -115,0 -172,-1zm1253 675c50,-275 101,-550 152,-824 137,0 274,0 412,0 78,1 159,28 209,90 47,56 58,135 45,205 -14,74 -42,150 -97,204 -46,46 -108,72 -171,84 -102,21 -208,15 -311,16 -13,75 -26,150 -40,225 -66,0 -132,0 -198,0zm322 -675c-19,100 -38,200 -57,300 44,0 88,0 133,0 52,-1 107,-2 152,-30 40,-25 62,-70 70,-114 7,-36 12,-77 -10,-109 -25,-34 -70,-43 -109,-46 -59,-2 -119,0 -178,-1z"/>
  </g>
 </g>
</svg>
