<?xml version="1.0" encoding="UTF-8"?>
<!DOCTYPE svg PUBLIC "-//W3C//DTD SVG 1.1//EN" "http://www.w3.org/Graphics/SVG/1.1/DTD/svg11.dtd">
<svg xmlns="http://www.w3.org/2000/svg" xml:space="preserve" width="50mm" height="50mm" version="1.1" style="shape-rendering:geometricPrecision; text-rendering:geometricPrecision; image-rendering:optimizeQuality; fill-rule:evenodd; clip-rule:evenodd"
viewBox="0 0 5000 5000"
 xmlns:xlink="http://www.w3.org/1999/xlink">
 <defs>
  <style type="text/css">
   <![CDATA[
    .fil1 {fill:#FEFEFE}
    .fil2 {fill:#616c71}
    .fil3 {fill:#737677}
    .fil4 {fill:#FEFEFE;fill-rule:nonzero}
   ]]>
  </style>
  <linearGradient id="id0" gradientUnits="userSpaceOnUse" x1="2500" y1="5000" x2="2500" y2="0">
   <stop offset="0" style="stop-color:#373435"/>
   <stop offset="0.501961" style="stop-color:#616C71"/>
   <stop offset="1" style="stop-color:#373435"/>
  </linearGradient>
 </defs>
 <g id="Слой_x0020_1">
  <metadata id="CorelCorpID_0Corel-Layer"/>
  <g id="_653206816">
   <path class="fil1" d="M824 350l3351 0c261,0 474,213 474,474l0 3351c0,261 -213,474 -474,474l-3351 0c-261,0 -474,-213 -474,-474l0 -3351c0,-261 213,-474 474,-474z"/>
   <path class="fil2" d="M824 400l3351 0c233,0 424,191 424,424l0 3351c0,233 -191,424 -424,424l-3351 0c-233,0 -424,-191 -424,-424l0 -3351c0,-233 191,-424 424,-424z"/>
   <path class="fil3" d="M2500 400l1676 0c233,0 424,191 424,424l0 3351c0,233 -191,424 -424,424l-1676 0 0 -4200z"/>
   <g>
    <path class="fil4" d="M1000 3142c97,0 193,0 290,0 42,0 84,-2 125,9 20,7 40,12 59,21 40,21 75,52 97,93 31,51 37,114 30,172 -7,61 -39,120 -89,156 -18,16 -41,24 -62,34 -21,8 -44,12 -66,14 69,106 140,211 209,316 5,9 11,19 18,27 -42,0 -83,0 -125,0 -71,-112 -143,-223 -214,-335 -56,0 -113,0 -169,0 0,112 0,223 0,335 -35,0 -70,0 -104,0 0,-281 0,-561 0,-842zm104 94c0,107 0,215 0,322 72,0 144,0 216,0 25,0 50,-2 73,-12 17,-8 35,-15 48,-29 33,-27 51,-69 52,-111 1,-34 -4,-70 -25,-99 -16,-26 -41,-44 -69,-57 -27,-10 -55,-14 -84,-14 -71,0 -141,0 -212,0zm2647 -27c32,0 65,0 97,0 0,55 0,111 0,166 41,0 82,0 123,0 0,28 0,55 0,83 -41,0 -82,0 -123,0 0,123 0,247 0,370 0,18 0,36 8,52 8,23 33,35 56,35 22,-2 45,-10 61,-26 12,22 18,47 28,70 -10,14 -26,21 -42,28 -28,13 -60,14 -90,12 -25,-2 -49,-11 -70,-25 -33,-26 -47,-69 -47,-110 -1,-136 0,-271 0,-407 -34,0 -68,0 -101,0 0,-28 0,-55 0,-83 34,0 68,0 102,0 0,-55 0,-111 0,-166zm-1816 157c38,-9 79,-9 117,0 26,5 52,11 75,25 69,34 119,101 140,175 17,46 18,96 18,145 -164,1 -329,0 -493,0 4,37 11,74 31,106 7,11 13,24 23,33 8,8 15,18 25,25 11,7 21,17 34,23 33,15 69,26 106,24 37,2 73,-9 108,-22 18,-7 33,-18 49,-28 12,-8 21,-19 32,-28 15,20 30,40 45,61 -27,29 -61,50 -97,67 -24,10 -49,16 -74,22 -46,8 -94,9 -140,0 -25,-7 -50,-13 -74,-24 -19,-11 -39,-20 -55,-35 -32,-24 -57,-57 -76,-92 -11,-24 -22,-48 -27,-74 -15,-67 -14,-138 8,-203 10,-22 17,-46 32,-66 42,-69 113,-120 193,-133zm-25 89c-18,6 -32,19 -47,30 -13,14 -27,27 -36,44 -23,33 -32,73 -37,112 134,0 268,0 401,0 -2,-17 -4,-34 -8,-51 -13,-56 -51,-107 -103,-132 -15,-7 -32,-11 -48,-16 -41,-8 -84,-4 -123,13zm707 -89c52,-11 105,-6 156,8 50,13 96,46 119,93 14,31 22,65 21,100 0,140 0,280 0,419 -32,-1 -63,0 -95,-1 0,-23 0,-46 0,-68 -26,27 -56,50 -91,63 -16,6 -32,11 -48,15 -46,8 -96,10 -140,-8 -50,-16 -92,-52 -115,-98 -23,-51 -25,-110 -8,-162 20,-59 73,-104 133,-119 28,-7 58,-12 87,-10 32,3 65,8 95,20 33,14 63,35 88,61 0,-34 0,-69 0,-103 0,-22 -3,-45 -14,-65 -8,-11 -15,-24 -27,-32 -12,-8 -22,-17 -35,-22 -37,-14 -77,-18 -116,-11 -52,5 -99,32 -135,68 -4,5 -9,9 -14,14 -13,-23 -30,-43 -43,-67 26,-26 55,-50 89,-66 29,-17 62,-25 94,-30zm-10 305c-17,3 -33,13 -48,20 -25,16 -44,41 -53,69 -9,33 -7,69 10,99 13,29 41,48 69,61 39,14 82,14 123,5 27,-6 53,-19 76,-34 12,-12 29,-21 35,-38 1,-38 0,-76 0,-115 -25,-34 -63,-55 -103,-66 -36,-9 -73,-10 -109,-3zm626 -278c31,-18 67,-25 102,-31 42,-6 84,-2 125,9 56,13 104,50 138,95 -10,11 -23,19 -33,30 -9,10 -22,16 -30,27 -8,-14 -21,-24 -31,-35 -22,-17 -47,-33 -75,-38 -54,-10 -113,-6 -160,25 -25,14 -45,36 -60,59 -18,24 -26,53 -34,81 -14,65 -6,134 24,194 17,29 38,56 67,73 25,19 57,27 87,31 31,5 63,0 93,-9 37,-12 66,-39 89,-68 10,9 22,18 31,28 11,10 23,19 32,30 -21,27 -47,52 -77,69 -22,15 -49,21 -75,29 -46,9 -94,10 -139,0 -27,-9 -55,-15 -79,-30 -56,-31 -102,-81 -127,-140 -15,-29 -21,-61 -26,-93 -9,-73 0,-150 35,-216 28,-52 71,-97 124,-123z"/>
    <path class="fil4" d="M2903 1000l20 0c21,3 43,6 63,14 42,16 74,52 94,91 15,32 28,66 33,101 17,101 8,204 -10,304 -3,20 -11,38 -13,58 39,9 75,24 113,37 92,38 184,85 253,159 35,40 65,91 61,147 0,36 -16,70 -34,100 -28,43 -67,78 -109,107 -53,38 -112,66 -171,91 -37,13 -72,28 -110,37 19,61 24,125 31,188 6,62 0,125 -12,185 -6,31 -18,60 -31,88 -20,38 -51,72 -91,89 -46,18 -96,17 -144,7 -35,-6 -68,-22 -100,-36 -90,-45 -172,-107 -244,-179 -22,24 -48,44 -72,66 -57,46 -119,87 -186,117 -25,10 -50,22 -76,27 -52,13 -109,17 -161,-2 -31,-13 -58,-36 -77,-64 -19,-29 -33,-61 -41,-95 -21,-78 -18,-159 -10,-239 8,-50 16,-100 28,-149 -23,-7 -46,-13 -68,-21 -25,-11 -51,-18 -75,-30 -17,-9 -35,-15 -51,-24 -17,-11 -37,-19 -53,-31 -52,-32 -100,-71 -136,-121 -14,-21 -28,-43 -34,-67 -13,-41 -9,-86 8,-125 20,-43 52,-80 89,-110 53,-44 115,-78 178,-105 23,-12 49,-19 73,-28 23,-10 48,-15 72,-22 -26,-113 -45,-231 -28,-347 7,-33 13,-66 26,-97 10,-20 19,-40 35,-57 22,-27 52,-48 86,-56 53,-14 109,-5 161,11 19,7 37,15 56,22 51,24 99,54 145,88 38,30 77,60 110,95 68,-66 143,-126 227,-170 16,-10 34,-16 51,-24 39,-19 82,-26 125,-32zm-73 104c-21,10 -43,18 -64,28 -18,12 -37,20 -54,33 -54,35 -104,77 -151,122 21,25 43,48 64,74 38,45 74,93 108,141 25,2 49,4 74,9 45,6 90,12 134,20 21,6 43,9 64,14 5,-19 8,-38 13,-56 15,-84 23,-171 11,-257 -5,-36 -17,-71 -35,-103 -12,-14 -24,-30 -42,-36 -40,-13 -83,-3 -122,10zm-775 -11c-25,4 -46,23 -57,45 -23,35 -28,78 -33,119 -8,52 -1,105 5,158 6,44 12,88 25,130 20,-5 41,-8 60,-13 44,-9 89,-14 134,-20 25,-5 51,-7 77,-9 44,-62 91,-122 142,-179 9,-13 22,-22 31,-36 -61,-57 -127,-110 -201,-149 -23,-15 -50,-23 -75,-34 -35,-11 -72,-18 -108,-11zm325 402c80,-4 161,-4 241,0 -38,-50 -77,-99 -121,-144 -43,46 -83,94 -120,144zm-66 90c-25,40 -52,78 -75,118 -14,20 -23,42 -37,62 -25,47 -51,94 -73,142 54,112 116,219 186,321 91,7 182,6 273,5 32,-2 64,-1 96,-6 14,-12 21,-30 32,-45 10,-14 19,-29 27,-44 14,-19 24,-41 37,-61 21,-38 42,-75 62,-113 9,-21 23,-39 29,-61 -28,-59 -61,-116 -93,-173 -30,-50 -60,-100 -93,-147 -123,-9 -248,-9 -371,0zm-215 27c-26,7 -54,11 -80,16 9,31 18,62 31,92 10,29 21,57 33,84 8,-21 22,-40 31,-60 28,-50 57,-99 88,-148 -34,5 -69,9 -103,15zm698 -15c44,67 83,137 121,208 5,-13 10,-26 15,-38 14,-27 21,-57 33,-85 6,-17 11,-35 17,-52 -21,-5 -43,-9 -64,-13 -40,-10 -81,-14 -122,-20zm-971 88c-18,6 -34,16 -51,22 -21,8 -39,20 -59,30 -51,31 -102,67 -134,119 -14,25 -18,55 -7,82 12,31 35,56 58,78 32,29 67,53 105,73 20,13 43,21 64,32 23,11 48,18 72,28 19,7 39,12 58,18 11,-29 19,-59 30,-88 10,-23 17,-47 27,-70 11,-21 17,-43 27,-64 7,-12 12,-25 18,-38 -4,-10 -8,-19 -13,-29 -13,-23 -20,-49 -31,-72 -10,-23 -17,-47 -27,-71 -11,-28 -18,-57 -29,-85 -37,9 -71,23 -107,35zm1217 39c-8,21 -15,42 -23,63 -11,22 -18,46 -29,69 -8,16 -14,33 -22,49 3,13 11,26 16,39 13,24 21,50 33,74 10,23 17,47 27,69 10,24 16,50 25,75 12,0 25,-7 37,-10 30,-13 62,-20 91,-36 17,-8 36,-14 52,-25 58,-30 114,-67 155,-119 13,-21 27,-43 26,-68 1,-25 -14,-47 -27,-67 -32,-41 -75,-71 -119,-98 -27,-14 -53,-29 -81,-40 -28,-15 -60,-23 -89,-35 -16,-6 -32,-10 -48,-14 -8,24 -14,49 -24,73zm-246 493c34,-4 69,-8 103,-14 29,-7 58,-11 87,-18 -12,-44 -30,-85 -46,-128 -8,-17 -15,-34 -22,-52 -38,72 -78,143 -122,211zm-756 -100c-8,24 -15,48 -24,72 23,5 47,8 69,14 39,7 78,11 118,16 -8,-14 -15,-27 -25,-40 -22,-36 -43,-72 -63,-108 -10,-21 -24,-40 -32,-61 -17,35 -28,72 -43,108zm902 166c-56,11 -112,16 -168,25 -13,2 -27,1 -40,5 -43,60 -87,120 -135,175 -10,15 -25,25 -34,40 60,57 124,110 198,149 23,14 48,22 72,33 37,12 78,20 116,9 19,-5 32,-20 44,-34 16,-25 28,-53 34,-83 13,-60 13,-122 8,-182 -4,-51 -12,-102 -26,-151 -23,5 -46,9 -68,15zm-949 -11c-17,59 -24,120 -31,181 -3,39 -4,79 4,118 5,36 12,73 32,104 8,17 23,30 38,39 41,17 86,8 127,-4 26,-11 53,-19 78,-34 74,-39 140,-91 201,-149 -9,-14 -23,-24 -33,-37 -51,-56 -97,-117 -142,-178 -27,-3 -54,-4 -81,-9 -47,-6 -94,-11 -141,-20 -17,-5 -34,-8 -52,-11zm387 46c9,16 23,28 33,43 29,35 58,71 90,103 42,-47 82,-96 119,-147 -81,4 -161,4 -242,0zm86 -592c42,-7 86,-1 123,20 14,11 30,19 41,33 13,12 23,28 31,44 16,28 21,62 19,94 -3,50 -30,98 -68,129 -18,12 -37,25 -58,31 -44,13 -93,10 -134,-10 -16,-10 -33,-18 -45,-32 -54,-49 -71,-131 -45,-198 23,-57 75,-102 137,-112z"/>
   </g>
  </g>
 </g>
</svg>
