<?xml version="1.0" encoding="UTF-8"?>
<!DOCTYPE svg PUBLIC "-//W3C//DTD SVG 1.1//EN" "http://www.w3.org/Graphics/SVG/1.1/DTD/svg11.dtd">
<svg xmlns="http://www.w3.org/2000/svg" xml:space="preserve" width="50mm" height="50mm" version="1.1" style="shape-rendering:geometricPrecision; text-rendering:geometricPrecision; image-rendering:optimizeQuality; fill-rule:evenodd; clip-rule:evenodd"
viewBox="0 0 5000 5000"
 xmlns:xlink="http://www.w3.org/1999/xlink">
 <defs>
  <style type="text/css">
   <![CDATA[
    .fil1 {fill:#FEFEFE}
    .fil2 {fill:#616c71}
    .fil3 {fill:#737677}
    .fil4 {fill:#FEFEFE;fill-rule:nonzero}
   ]]>
  </style>
  <linearGradient id="id0" gradientUnits="userSpaceOnUse" x1="2500" y1="5000" x2="2500" y2="0">
   <stop offset="0" style="stop-color:#373435"/>
   <stop offset="0.501961" style="stop-color:#616C71"/>
   <stop offset="1" style="stop-color:#373435"/>
  </linearGradient>
 </defs>
 <g id="Слой_x0020_1">
  <metadata id="CorelCorpID_0Corel-Layer"/>
  <g id="_651071232">
   <path class="fil1" d="M824 350l3351 0c261,0 474,213 474,474l0 3351c0,261 -213,474 -474,474l-3351 0c-261,0 -474,-213 -474,-474l0 -3351c0,-261 213,-474 474,-474z"/>
   <path class="fil2" d="M824 400l3351 0c233,0 424,191 424,424l0 3351c0,233 -191,424 -424,424l-3351 0c-233,0 -424,-191 -424,-424l0 -3351c0,-233 191,-424 424,-424z"/>
   <path class="fil3" d="M2500 400l1676 0c233,0 424,191 424,424l0 3351c0,233 -191,424 -424,424l-1676 0 0 -4200z"/>
   <path class="fil4" d="M1587 813l1825 0 0 1825 -1825 0 0 -1825zm37 3384c107,0 184,-60 184,-153 0,-84 -56,-128 -176,-154 -119,-25 -147,-54 -147,-105 0,-50 45,-89 115,-89 56,0 106,18 156,59l35 -47c-55,-44 -111,-66 -190,-66 -103,0 -177,62 -177,147 0,90 57,130 181,157 113,24 140,52 140,103 0,55 -48,93 -120,93 -75,0 -129,-25 -185,-76l-38 45c65,58 135,86 221,86zm478 2c75,0 123,-32 163,-77l-39 -36c-32,34 -69,60 -120,60 -83,0 -147,-69 -147,-155 0,-87 62,-156 143,-156 54,0 91,25 123,59l38 -40c-37,-39 -84,-71 -160,-71 -116,0 -204,96 -204,208 0,113 88,208 204,208zm261 -9l59 0 0 -159c0,-120 71,-183 158,-183l5 0 0 -64c-76,-3 -133,45 -163,111l0 -104 -59 0 0 399zm314 -486l68 0 0 -66 -68 0 0 66zm4 486l59 0 0 -399 -59 0 0 399zm197 123l59 0 0 -200c31,45 79,85 153,85 96,0 190,-77 190,-207 0,-133 -95,-208 -190,-208 -73,0 -120,41 -153,89l0 -80 -59 0 0 522zm201 -168c-74,0 -144,-62 -144,-154 0,-93 70,-155 144,-155 76,0 140,60 140,154 0,98 -63,155 -140,155zm444 52c29,0 51,-6 72,-17l0 -51c-21,10 -38,14 -58,14 -40,0 -67,-18 -67,-66l0 -233 126 0 0 -52 -126 0 0 -120 -59 0 0 120 -56 0 0 52 56 0 0 241c0,81 49,113 113,113zm-1765 -794l96 0 0 -452 171 0 0 -88 -438 0 0 88 171 0 0 452zm389 126c66,0 102,-31 134,-114l162 -419 -97 0 -106 302 -116 -302 -99 0 170 407c-15,35 -32,47 -58,47 -19,0 -38,-6 -55,-15l-32 69c29,15 57,25 96,25zm376 -2l93 0 0 -187c29,38 71,72 138,72 97,0 190,-76 190,-211 0,-136 -93,-213 -190,-213 -66,0 -108,34 -138,76l0 -68 -93 0 0 531zm210 -196c-63,0 -119,-52 -119,-130 0,-79 56,-132 119,-132 63,0 116,52 116,130 0,82 -52,132 -116,132zm494 82c75,0 128,-30 167,-76l-55 -49c-32,32 -65,49 -110,49 -60,0 -107,-37 -117,-103l299 0c1,-5 2,-20 2,-26 0,-117 -66,-219 -195,-219 -116,0 -199,96 -199,212 0,127 91,213 209,213zm-116 -241c9,-63 49,-107 106,-107 62,0 97,47 103,107l-209 0zm-931 -708l199 0 0 -581 215 0 0 -186 -628 0 0 186 215 0 0 581zm766 13c174,0 290,-93 290,-250 0,-146 -102,-203 -267,-241 -99,-24 -124,-40 -124,-75 0,-30 24,-52 72,-52 63,0 135,26 201,76l99 -150c-78,-67 -173,-102 -295,-102 -172,0 -277,103 -277,246 0,160 118,206 270,244 97,24 121,42 121,74 0,35 -29,55 -82,55 -83,0 -162,-32 -232,-92l-111 142c88,84 209,127 336,127z"/>
  </g>
 </g>
</svg>
