<?xml version="1.0" encoding="UTF-8"?>
<!DOCTYPE svg PUBLIC "-//W3C//DTD SVG 1.1//EN" "http://www.w3.org/Graphics/SVG/1.1/DTD/svg11.dtd">
<svg xmlns="http://www.w3.org/2000/svg" xml:space="preserve" width="50mm" height="50mm" version="1.1" style="shape-rendering:geometricPrecision; text-rendering:geometricPrecision; image-rendering:optimizeQuality; fill-rule:evenodd; clip-rule:evenodd"
viewBox="0 0 5000 5000"
 xmlns:xlink="http://www.w3.org/1999/xlink">
 <defs>
  <style type="text/css">
   <![CDATA[
    .fil1 {fill:#FEFEFE}
    .fil2 {fill:#616c71}
    .fil3 {fill:#737677}
   ]]>
  </style>
  <linearGradient id="id0" gradientUnits="userSpaceOnUse" x1="2500" y1="5000" x2="2500" y2="0">
   <stop offset="0" style="stop-color:#373435"/>
   <stop offset="0.501961" style="stop-color:#616C71"/>
   <stop offset="1" style="stop-color:#373435"/>
  </linearGradient>
 </defs>
 <g id="Слой_x0020_1">
  <metadata id="CorelCorpID_0Corel-Layer"/>
  <g id="_776095024">
   <path class="fil1" d="M824 350l3351 0c261,0 474,213 474,474l0 3351c0,261 -213,474 -474,474l-3351 0c-261,0 -474,-213 -474,-474l0 -3351c0,-261 213,-474 474,-474z"/>
   <path class="fil2" d="M824 400l3351 0c233,0 424,191 424,424l0 3351c0,233 -191,424 -424,424l-3351 0c-233,0 -424,-191 -424,-424l0 -3351c0,-233 191,-424 424,-424z"/>
   <path class="fil3" d="M2500 400l1676 0c233,0 424,191 424,424l0 3351c0,233 -191,424 -424,424l-1676 0 0 -4200z"/>
   <path class="fil1" d="M2128 2889l0 0zm-965 1310l46 0 0 -215 82 0 0 -42 -209 0 0 42 82 0 0 215zm175 0l45 0 0 -90 56 0 64 90 53 0 -69 -97c36,-10 61,-36 61,-78 0,-50 -35,-82 -96,-82l-115 0 0 257zm45 -130l0 -86 66 0c33,0 53,15 53,43 0,27 -21,44 -53,44l-66 0zm210 130l46 0 26 -62 122 0 26 62 48 0 -113 -259 -42 0 -113 259zm89 -102l44 -103 44 103 -89 0zm234 102l44 0 0 -183 142 183 38 0 0 -257 -44 0 0 178 -138 -178 -42 0 0 257zm391 4c54,0 92,-29 92,-77 0,-43 -28,-63 -83,-76 -49,-12 -61,-21 -61,-40 0,-18 15,-31 42,-31 24,0 47,9 70,26l24 -34c-26,-21 -56,-32 -93,-32 -51,0 -88,31 -88,75 0,48 31,64 86,77 48,11 58,21 58,40 0,20 -18,33 -46,33 -32,0 -57,-12 -81,-33l-27 32c31,28 68,41 107,41zm265 1c48,0 78,-18 104,-46l-29 -29c-22,21 -42,33 -74,33 -49,0 -85,-41 -85,-92 0,-51 36,-92 85,-92 29,0 51,13 72,32l29 -33c-25,-24 -53,-40 -101,-40 -78,0 -133,60 -133,133 0,75 56,133 131,133zm267 0c79,0 135,-61 135,-133 0,-73 -55,-133 -134,-133 -79,0 -135,61 -135,133 0,73 55,133 134,133zm1 -42c-51,0 -87,-42 -87,-92 0,-51 36,-92 87,-92 51,0 87,42 87,92 0,51 -36,92 -87,92zm189 37l96 0c81,0 137,-56 137,-129 0,-73 -56,-129 -137,-129l-96 0 0 257zm45 -41l0 -175 51 0c54,0 89,37 89,87 0,51 -35,87 -89,87l-51 0zm234 41l45 0 0 -257 -45 0 0 257zm103 0l44 0 0 -183 142 183 38 0 0 -257 -44 0 0 178 -138 -178 -42 0 0 257zm401 4c46,0 82,-18 107,-40l0 -108 -110 0 0 39 66 0 0 48c-16,12 -38,19 -62,19 -53,0 -87,-39 -87,-92 0,-50 36,-92 83,-92 33,0 52,11 72,28l29 -34c-26,-22 -54,-35 -99,-35 -78,0 -133,61 -133,133 0,76 53,133 133,133zm-2731 -508l-224 -564 67 0 201 505 101 0 200 -505 64 0 -223 564 -186 0zm-139 -564l193 488 79 0 191 -488 -62 0 -167 430 -169 -430 -65 0zm737 564l0 -564 67 0 0 564 -67 0zm85 0l0 -564 66 0 0 564 -66 0zm374 -135l0 -430 309 0c40,4 75,16 104,35 70,46 105,126 106,241 0,120 -36,204 -111,252 -31,20 -68,32 -112,36l-378 0 0 -59 370 0c32,-3 60,-13 83,-28 56,-38 84,-104 84,-199 0,-91 -26,-154 -78,-191 -22,-16 -48,-25 -78,-28l-233 0 0 430 -149 0 0 -59 82 0zm435 -151c0,87 -26,149 -77,184 -21,15 -47,23 -76,26l-197 0 0 -413 207 0c28,3 52,11 72,25 48,34 71,93 71,178zm-68 1c0,-59 -16,-100 -47,-125 -13,-10 -29,-16 -47,-18l-122 0 0 294 113 0c20,-2 38,-8 52,-19 34,-24 51,-68 51,-131zm796 -220l40 -59 -515 0 0 59 475 0zm-389 77l0 428 428 0 -1 -59 -359 0 0 -430 -153 0 0 61 85 0zm85 135l0 -195 292 0 -40 61 -186 0 0 75 276 0 0 59 -341 0zm341 218l-341 0 0 -202 341 0 -1 57 -274 0 0 85 276 0 0 59zm806 -207c0,79 -28,146 -85,202 -56,56 -123,84 -201,84 -77,0 -142,-28 -197,-84 -55,-56 -82,-123 -82,-203 0,-79 27,-146 81,-200 54,-54 120,-81 197,-81 78,0 145,27 202,82 57,55 85,121 85,200zm-68 1c0,-63 -21,-116 -64,-159 -43,-43 -94,-64 -156,-64 -61,0 -111,21 -150,63 -39,42 -59,95 -59,158 0,64 20,117 60,160 40,43 90,64 151,64 61,0 113,-21 155,-64 42,-43 63,-95 63,-159zm-22 -1c0,59 -19,108 -56,148 -37,40 -84,60 -140,60 -56,0 -101,-20 -138,-60 -36,-40 -55,-90 -55,-149 0,-59 18,-108 54,-146 36,-39 81,-58 137,-58 56,0 103,20 141,59 38,40 57,88 57,147zm-63 0c0,-44 -13,-79 -38,-105 -25,-27 -57,-40 -97,-40 -39,0 -70,13 -92,39 -22,26 -33,61 -33,105 0,44 12,80 35,108 23,28 54,42 93,42 39,0 71,-14 95,-41 25,-28 37,-63 37,-107zm-2991 -2173l373 75 702 1510 -1075 -1586zm314 -247l360 46 422 1784 -782 -1830zm1543 436l134 539 304 -316 -438 -224zm531 374c-4,51 -17,98 -37,139 -20,41 -48,76 -82,102 -34,26 -74,44 -120,50 -46,6 -93,1 -138,-14 -45,-16 -89,-41 -129,-75 -40,-34 -76,-76 -105,-123 -30,-48 -53,-102 -67,-160 -14,-58 -18,-114 -13,-166 5,-52 19,-99 40,-140 21,-41 50,-75 85,-100 35,-25 76,-41 122,-46 46,-5 92,2 136,19 44,16 87,42 126,76 39,33 73,75 102,121 29,47 51,99 65,155 14,56 19,111 15,162zm18 -166c-15,-62 -40,-119 -71,-170 -31,-51 -69,-96 -112,-133 -42,-37 -89,-65 -138,-84 -49,-18 -100,-26 -150,-21 -51,5 -96,23 -134,50 -39,28 -70,65 -94,110 -24,45 -39,97 -44,154 -6,57 -1,119 14,182 16,64 41,123 74,176 32,53 72,99 116,136 44,37 92,65 142,82 50,17 101,23 151,16 50,-7 95,-27 132,-56 37,-29 67,-68 90,-113 22,-45 36,-97 40,-153 4,-56 -1,-116 -16,-178zm224 -393l-36 -128 -166 -4 36 135 166 -2zm-1241 17l-38 -178 -327 -9 38 191 327 -5zm59 274l-39 -183 -327 11 39 197 328 -25zm60 282l-40 -188 -328 32 40 203 328 -47zm62 290l-41 -193 -328 55 41 209 328 -70zm64 298l-43 -199 -328 78 43 216 328 -95zm1220 -353l-38 -139 -162 39 39 147 161 -46zm-58 -208l-38 -136 -163 27 39 143 162 -35zm-57 -204l-37 -133 -164 16 38 141 163 -24zm-55 -200l-36 -131 -165 6 37 138 165 -13zm-138 -497l98 8 356 1262 0 0 -93 34 -34 -123 -160 51 35 130 -1055 381 -38 -178 -328 103 38 193 -237 86 -388 -2089 233 18 32 161 326 15 -32 -150 1080 85 31 115 167 8 -30 -109z"/>
  </g>
 </g>
</svg>
