<?xml version="1.0" encoding="UTF-8"?>
<!DOCTYPE svg PUBLIC "-//W3C//DTD SVG 1.1//EN" "http://www.w3.org/Graphics/SVG/1.1/DTD/svg11.dtd">
<svg xmlns="http://www.w3.org/2000/svg" xml:space="preserve" width="50mm" height="50mm" version="1.1" style="shape-rendering:geometricPrecision; text-rendering:geometricPrecision; image-rendering:optimizeQuality; fill-rule:evenodd; clip-rule:evenodd"
viewBox="0 0 5000 5000"
 xmlns:xlink="http://www.w3.org/1999/xlink">
 <defs>
  <style type="text/css">
   <![CDATA[
    .fil1 {fill:#FEFEFE}
    .fil2 {fill:#616c71}
    .fil3 {fill:#737677}
    .fil4 {fill:#FEFEFE;fill-rule:nonzero}
   ]]>
  </style>
  <linearGradient id="id0" gradientUnits="userSpaceOnUse" x1="2500" y1="5000" x2="2500" y2="0">
   <stop offset="0" style="stop-color:#373435"/>
   <stop offset="0.501961" style="stop-color:#616C71"/>
   <stop offset="1" style="stop-color:#373435"/>
  </linearGradient>
 </defs>
 <g id="Слой_x0020_1">
  <metadata id="CorelCorpID_0Corel-Layer"/>
  <g id="_670526176">
   <path class="fil1" d="M824 350l3351 0c261,0 474,213 474,474l0 3351c0,261 -213,474 -474,474l-3351 0c-261,0 -474,-213 -474,-474l0 -3351c0,-261 213,-474 474,-474z"/>
   <path class="fil2" d="M824 400l3351 0c233,0 424,191 424,424l0 3351c0,233 -191,424 -424,424l-3351 0c-233,0 -424,-191 -424,-424l0 -3351c0,-233 191,-424 424,-424z"/>
   <path class="fil2" d="M824 400l3351 0c233,0 424,191 424,424l0 3351c0,233 -191,424 -424,424l-3351 0c-233,0 -424,-191 -424,-424l0 -3351c0,-233 191,-424 424,-424z"/>
   <path class="fil3" d="M2500 400l1676 0c233,0 424,191 424,424l0 3351c0,233 -191,424 -424,424l-1676 0 0 -4200z"/>
   <g>
    <path class="fil4" d="M2429 760c201,-31 412,8 589,109 230,130 398,365 445,625 40,212 2,439 -107,625 -132,230 -369,397 -630,441 -214,38 -442,-3 -629,-116 -196,-117 -346,-311 -408,-531 -63,-219 -41,-461 63,-664 130,-260 390,-449 677,-490zm50 49c-240,23 -466,154 -606,349 -116,158 -175,357 -163,553 10,201 95,396 234,542 141,150 338,246 543,264 195,19 396,-32 558,-142 210,-140 353,-377 375,-628 17,-170 -18,-346 -101,-496 -87,-159 -225,-289 -389,-365 -140,-66 -297,-92 -451,-76zm-179 141c178,-67 381,-64 557,10 81,33 156,82 222,140 -76,-5 -141,66 -136,141 4,88 71,152 104,230 40,84 41,181 17,269 -34,129 -78,255 -117,383 -92,-272 -183,-545 -275,-817 33,-4 67,-2 99,-11 29,-14 15,-65 -18,-58 -106,7 -213,13 -319,5 -32,-1 -65,-7 -97,-4 -24,9 -26,48 -2,58 30,7 60,7 91,10 40,108 79,216 118,324 -55,166 -111,333 -166,499 -92,-274 -184,-549 -277,-823 32,-3 64,-3 95,-10 31,-9 23,-63 -10,-60 -85,4 -170,12 -255,8 88,-134 219,-239 370,-295zm934 349c88,162 115,356 73,536 -46,202 -179,381 -358,485 68,-199 137,-398 206,-596 24,-75 57,-148 72,-226 13,-65 15,-133 8,-199zm-1363 55c122,331 242,662 363,994 -168,-82 -304,-226 -373,-400 -77,-189 -73,-408 10,-594zm708 376c82,216 158,434 239,651 -150,52 -315,56 -467,11 76,-221 152,-441 228,-662z"/>
    <path class="fil4" d="M1164 2799c112,0 223,0 335,0 0,10 0,20 0,30 -27,2 -58,0 -81,18 -22,21 -12,54 -6,79 35,109 71,217 107,326 51,-151 102,-302 153,-453 10,0 19,0 29,0 49,150 98,300 148,449 38,-98 68,-199 103,-298 9,-30 24,-63 11,-94 -19,-28 -59,-24 -89,-27 0,-10 0,-20 0,-30 95,0 189,0 284,0 0,10 0,20 0,30 -38,1 -83,3 -109,35 -29,37 -41,84 -57,127 -54,162 -108,325 -162,487 -5,0 -15,0 -20,0 -51,-158 -103,-315 -154,-473 -52,158 -105,315 -157,473 -5,0 -15,0 -20,0 -58,-176 -114,-353 -172,-529 -13,-35 -25,-73 -54,-98 -25,-21 -59,-22 -90,-23 0,-10 0,-20 0,-30zm1151 135c87,-13 180,10 249,66 52,41 89,101 99,167 11,72 -14,148 -63,202 -63,72 -160,109 -255,103 -94,-5 -187,-52 -240,-131 -44,-65 -57,-151 -28,-224 37,-100 135,-168 239,-182zm19 45c-43,5 -83,28 -109,62 -36,46 -50,107 -50,165 1,57 17,117 55,161 68,80 210,76 273,-8 38,-51 51,-116 47,-179 -4,-60 -25,-121 -71,-162 -39,-35 -95,-46 -145,-39zm356 -29c91,0 183,0 274,0 55,1 115,14 156,53 43,40 52,111 20,161 -27,43 -76,65 -124,75 40,42 77,86 119,125 39,36 91,65 146,59 21,-2 46,-7 57,-28 13,-24 13,-52 14,-78 0,-77 0,-154 0,-231 -1,-29 0,-62 -18,-87 -20,-23 -53,-20 -80,-22 0,-10 0,-19 0,-28 94,0 189,0 283,0 80,2 165,20 226,76 77,71 90,194 46,287 -27,57 -81,98 -140,117 -66,24 -136,23 -205,22 -127,0 -253,0 -380,0 -55,-70 -111,-139 -166,-209 -9,0 -17,-1 -26,-1 2,49 -6,101 11,148 15,33 56,32 87,34 0,9 0,19 0,28 -100,0 -200,0 -300,0 0,-9 0,-19 0,-28 27,-2 61,0 80,-23 17,-24 16,-55 17,-83 0,-79 0,-158 0,-237 -2,-28 -1,-59 -19,-82 -20,-21 -52,-19 -79,-20 0,-10 0,-19 0,-28zm202 45c0,67 0,134 0,201 42,-2 91,9 127,-21 45,-39 44,-118 2,-158 -35,-31 -86,-21 -129,-22zm565 0c0,112 0,224 0,336 1,18 0,37 7,54 7,16 25,20 41,21 56,3 118,-5 159,-47 45,-47 53,-117 51,-179 -2,-58 -22,-122 -74,-155 -54,-36 -122,-28 -184,-29z"/>
    <path class="fil4" d="M1297 3576c105,0 211,0 316,0 68,0 140,17 189,66 58,57 65,157 16,222 -31,42 -80,66 -130,77 -54,12 -110,7 -165,8 1,53 -2,106 4,159 3,27 9,57 32,74 24,17 55,16 84,18 0,10 0,20 0,30 -115,0 -231,0 -346,0 0,-10 0,-20 0,-30 33,-2 73,0 95,-29 22,-32 21,-72 24,-109 1,-103 1,-207 0,-310 -2,-39 0,-82 -23,-117 -22,-30 -63,-28 -96,-30 0,-10 0,-20 0,-30zm227 317c42,-2 84,4 125,-5 44,-11 76,-51 82,-96 9,-52 -5,-115 -53,-145 -47,-28 -103,-14 -154,-18 0,88 0,175 0,263zm1782 -186c9,0 19,0 28,0 0,59 0,119 0,178 -11,0 -21,0 -31,0 -7,-35 -18,-71 -44,-97 -33,-32 -85,-42 -127,-24 -24,10 -44,34 -39,60 3,31 31,49 56,63 48,25 97,47 145,72 39,21 73,57 84,101 11,48 -6,100 -40,134 -41,41 -102,59 -159,54 -44,-4 -85,-24 -119,-50 -11,16 -19,33 -24,51 -7,0 -20,0 -27,0 -1,-70 0,-139 0,-209 10,0 20,0 30,0 6,42 22,84 54,114 36,35 90,50 140,42 31,-5 61,-29 64,-62 5,-34 -20,-61 -46,-79 -51,-33 -109,-52 -161,-83 -43,-26 -78,-71 -80,-123 -4,-48 25,-94 66,-117 66,-40 154,-31 215,14 7,-13 13,-27 18,-41zm456 0c9,0 19,0 28,0 0,59 0,119 0,178 -11,0 -21,0 -31,0 -6,-34 -17,-69 -42,-94 -32,-34 -85,-44 -128,-28 -25,9 -47,34 -42,62 3,30 31,48 54,61 48,25 98,47 146,72 40,22 74,57 84,102 11,48 -7,100 -41,134 -43,42 -107,60 -166,52 -41,-6 -78,-25 -111,-49 -10,16 -18,33 -24,51 -9,0 -18,0 -28,0 0,-70 0,-139 0,-209 10,0 20,0 30,0 7,59 40,118 97,143 43,19 99,25 138,-5 31,-25 30,-76 1,-102 -60,-56 -146,-69 -209,-120 -37,-30 -61,-77 -56,-125 4,-46 37,-85 77,-104 65,-32 146,-22 203,21 7,-13 13,-27 18,-41zm-1877 20c89,0 179,0 268,0 57,1 119,12 162,54 44,41 52,115 17,164 -27,41 -75,62 -121,71 35,38 69,77 106,113 35,34 77,64 126,71 25,2 56,-5 69,-29 12,-25 12,-54 13,-82 0,-77 0,-154 0,-231 -2,-28 -1,-59 -19,-82 -20,-21 -52,-19 -79,-20 0,-9 0,-19 0,-28 148,0 296,0 444,0 4,47 7,95 11,142 -6,0 -18,0 -24,0 -9,-32 -14,-73 -50,-85 -57,-18 -119,-9 -178,-11 0,56 0,113 0,169 34,-1 71,2 103,-12 27,-15 23,-51 24,-77 9,0 19,0 28,0 0,75 0,150 0,225 -10,0 -19,0 -28,0 -2,-26 3,-60 -22,-76 -32,-16 -70,-12 -105,-13 1,49 -4,98 6,146 3,21 18,40 40,44 34,7 70,4 105,3 28,-2 61,-4 81,-26 16,-19 20,-45 27,-68 6,0 17,0 23,0 -3,47 -6,95 -9,142 -207,0 -414,0 -621,0 -56,-70 -112,-140 -167,-210 -9,0 -17,0 -26,0 2,49 -6,101 12,148 15,33 56,32 87,33 0,9 0,19 0,28 -100,0 -200,0 -300,0 0,-9 0,-19 0,-28 28,-2 61,0 81,-23 17,-24 16,-55 17,-83 0,-81 1,-163 0,-244 -2,-27 -2,-58 -22,-78 -21,-18 -50,-16 -76,-18 0,-10 0,-19 0,-28zm202 45c0,67 0,134 0,201 42,-2 92,9 127,-21 44,-39 44,-117 2,-157 -35,-31 -86,-21 -129,-23z"/>
   </g>
  </g>
 </g>
</svg>
